<svg width="1150" height="1225" viewBox="0 0 1150 1225" fill="none" xmlns="http://www.w3.org/2000/svg">
<path d="M50 189H200V959H50V189Z" fill="#FF6600"/>
<path d="M400 475H550V1225H400V475Z" fill="#FF6600"/>
<path d="M1000 475H1150V1225H1000V475Z" fill="#FF6600"/>
<path d="M50 200L50 50L710 50V200L50 200Z" fill="#FF6600"/>
<path d="M50 1100L50 950H350V1100H50Z" fill="#FF6600"/>
<path d="M700 50H850V350H700V50Z" fill="#FF6600"/>
<path d="M700 740H850V960H700V740Z" fill="#FF6600"/>
<path d="M400 550V400H700V550H400Z" fill="#FF6600"/>
<path d="M625 1100V950H850V1100H625Z" fill="#FF6600"/>
<path d="M625 750V600H925V750H625Z" fill="#FF6600"/>
<path d="M850 550V400H1150V550H850Z" fill="#FF6600"/>
<path d="M0 139H150V909H0V139Z" fill="#0066FF"/>
<path d="M350 425H500V1175H350V425Z" fill="#0066FF"/>
<path d="M950 425H1100V1175H950V425Z" fill="#0066FF"/>
<path d="M0 150L0 -5.96046e-06L660 -5.96046e-06V150L0 150Z" fill="#0066FF"/>
<path d="M0 1050L0 900H300V1050H0Z" fill="#0066FF"/>
<path d="M650 0L800 0V300H650V0Z" fill="#0066FF"/>
<path d="M650 690H800V910H650V690Z" fill="#0066FF"/>
<path d="M350 500V350H650V500H350Z" fill="#0066FF"/>
<path d="M575 1050V900H800V1050H575Z" fill="#0066FF"/>
<path d="M575 700V550H875V700H575Z" fill="#0066FF"/>
<path d="M800 500V350H1100V500H800Z" fill="#0066FF"/>
</svg>
